<?xml version="1.0" encoding="utf-8"?>
<!-- Generator: Adobe Illustrator 15.0.0, SVG Export Plug-In . SVG Version: 6.00 Build 0)  -->
<!DOCTYPE svg PUBLIC "-//W3C//DTD SVG 1.1//EN" "http://www.w3.org/Graphics/SVG/1.1/DTD/svg11.dtd">
<svg version="1.1" id="Layer_1" xmlns="http://www.w3.org/2000/svg" xmlns:xlink="http://www.w3.org/1999/xlink" x="0px" y="0px"
	 width="389px" height="595.279px" viewBox="371.445 0 389 595.279" enable-background="new 371.445 0 389 595.279"
	 xml:space="preserve">
<g>
	<g>
		<path d="M548.773,283.117c-2.125-2.832-70.186-74.156-82.191-87.138c-12.006-12.978-22.937-39.749-22.937-64.072
			c0-55.756,45.208-100.963,100.966-100.963c-63.949,0-115.794,51.847-115.794,115.794c0,3.133,0.159,6.228,0.402,9.299
			c1.767,22.22,9.783,42.672,22.327,59.588c4.98,6.721,68.334,82.591,68.334,82.591c3.184,4.173,5.096,9.377,5.096,15.03
			c-0.002,6.549-2.555,12.488-6.688,16.925l-55.718,54.518h44.547c18.771-18.325,41.008-40.248,43.076-43.287
			c5.455-8.028,8.653-17.716,8.653-28.158C558.847,301.932,555.097,291.504,548.773,283.117z"/>
	</g>
	<g>
		<path d="M578.386,309.66c2.127,2.82,70.183,74.159,82.191,87.14c12.007,12.977,22.937,39.74,22.937,64.068
			c0,55.759-45.205,100.962-100.967,100.962c63.954,0,115.792-51.843,115.792-115.791c0-3.136-0.16-6.228-0.405-9.299
			c-1.765-22.217-9.777-42.675-22.325-59.592c-4.981-6.721-68.333-82.584-68.333-82.584c-3.18-4.179-5.095-9.377-5.095-15.035
			c0-6.544,2.552-12.487,6.693-16.926l55.717-54.517h-44.546c-18.776,18.324-41.014,40.246-43.076,43.284
			c-5.46,8.024-8.66,17.717-8.66,28.159C568.307,290.84,572.06,301.28,578.386,309.66z"/>
	</g>
</g>
</svg>
